<?xml version="1.0" encoding="UTF-8"?>
<!DOCTYPE svg PUBLIC "-//W3C//DTD SVG 1.1//EN" "http://www.w3.org/Graphics/SVG/1.1/DTD/svg11.dtd">
<!-- Creator: CorelDRAW -->
<svg xmlns="http://www.w3.org/2000/svg" xml:space="preserve" width="1.70666in" height="1.70666in" version="1.1" style="shape-rendering:geometricPrecision; text-rendering:geometricPrecision; image-rendering:optimizeQuality; fill-rule:evenodd; clip-rule:evenodd"
viewBox="0 0 1707 1707"
 xmlns:xlink="http://www.w3.org/1999/xlink">
 <defs>
  <style type="text/css">
   <![CDATA[
    .fil0 {fill:#006EA7}
    .fil1 {fill:#59AAE7}
    .fil2 {fill:#E1E6E9}
   ]]>
  </style>
 </defs>
 <g id="Layer_x0020_1">
  <metadata id="CorelCorpID_0Corel-Layer"/>
  <path class="fil0" d="M1578 1190l-395 0 0 157 123 0c71,0 129,58 129,129 0,71 -58,129 -129,129l-905 0c-72,0 -130,-58 -130,-129 0,-71 58,-129 130,-129l123 0 0 -157 -395 0c-71,0 -129,-58 -129,-129 0,-72 58,-129 129,-129l225 0 0 -157 -225 0c-71,0 -129,-58 -129,-129 0,-71 58,-129 129,-129l395 0 0 -157 -123 0c-72,0 -129,-58 -129,-129 0,-72 57,-130 129,-130l905 0c71,0 129,58 129,129 0,72 -58,130 -129,130l-123 0 0 157 395 0c71,0 129,58 129,129 0,71 -58,129 -129,129l-225 0 0 157 225 0c71,0 129,57 129,129 0,71 -58,129 -129,129zm-400 -937l-649 0c-30,0 -30,-45 0,-45l649 0c29,0 29,45 0,45zm-609 107l0 157 54 0c72,0 129,58 129,129 0,71 -57,129 -129,129l-224 0 0 157 224 0c72,0 129,57 129,129 0,71 -57,129 -129,129l-54 0 0 157 569 0 0 -157 -55 0c-71,0 -129,-58 -129,-129 0,-72 58,-129 129,-129l225 0 0 -157 -225 0c-71,0 -129,-58 -129,-129 0,-71 58,-129 129,-129l55 0 0 -157 -569 0zm-168 -213c-47,0 -84,37 -84,83 0,47 37,84 84,84l905 0c46,0 84,-37 84,-83 0,-47 -38,-84 -84,-84l-905 0zm777 1352l-649 0c-30,0 -30,-46 0,-46l649 0c30,0 30,46 0,46zm-777 -106c-47,0 -84,37 -84,83 0,46 37,84 84,84l905 0c46,0 84,-38 84,-84 0,-46 -38,-83 -84,-83l-905 0zm758 -249l419 0c46,0 83,-37 83,-83 0,-47 -37,-84 -83,-84l-495 0c-46,0 -83,37 -83,84 0,46 37,83 83,83l76 0zm-614 0l78 0c47,0 84,-37 84,-83 0,-47 -37,-84 -84,-84l-494 0c-46,0 -84,37 -84,84 0,46 38,83 84,83l416 0zm-50 -475l-237 0c-30,0 -30,-46 0,-46l237 0c30,0 30,46 0,46zm-366 -106c-46,0 -84,37 -84,83 0,46 38,84 84,84l494 0c47,0 84,-38 84,-84 0,-46 -37,-83 -84,-83l-494 0zm1320 106l-237 0c-30,0 -30,-46 0,-46l237 0c30,0 30,46 0,46zm-366 -106c-46,0 -83,37 -83,83 0,46 37,84 83,84l495 0c46,0 83,-38 83,-84 0,-46 -37,-83 -83,-83l-495 0zm-588 520l-237 0c-30,0 -30,-45 0,-45l237 0c30,0 30,45 0,45zm954 0l-237 0c-30,0 -30,-45 0,-45l237 0c30,0 30,45 0,45z"/>
  <path class="fil1" d="M1083 730l495 0c46,0 83,-38 83,-84 0,-46 -37,-83 -83,-83l-495 0c-46,0 -83,37 -83,83 0,46 37,84 83,84zm129 -61c-30,0 -30,-46 0,-46l237 0c30,0 30,46 0,46l-237 0z"/>
  <path class="fil1" d="M401 314l905 0c46,0 84,-37 84,-83 0,-47 -38,-84 -84,-84l-905 0c-47,0 -84,37 -84,83 0,47 37,84 84,84zm777 -106c29,0 29,45 0,45l-649 0c-30,0 -30,-45 0,-45l649 0z"/>
  <path class="fil1" d="M707 646c0,-46 -37,-83 -84,-83l-494 0c-46,0 -84,37 -84,83 0,46 38,84 84,84l494 0c47,0 84,-38 84,-84zm-212 -23c30,0 30,46 0,46l-237 0c-30,0 -30,-46 0,-46l237 0z"/>
  <path class="fil1" d="M707 1061c0,-47 -37,-84 -84,-84l-494 0c-46,0 -84,37 -84,84 0,46 38,83 84,83l416 0 78 0c47,0 84,-37 84,-83zm-212 -23c30,0 30,45 0,45l-237 0c-30,0 -30,-45 0,-45l237 0z"/>
  <path class="fil2" d="M623 932c72,0 129,57 129,129 0,71 -57,129 -129,129l-54 0 0 157 569 0 0 -157 -55 0c-71,0 -129,-58 -129,-129 0,-72 58,-129 129,-129l225 0 0 -157 -225 0c-71,0 -129,-58 -129,-129 0,-71 58,-129 129,-129l55 0 0 -157 -569 0 0 157 54 0c72,0 129,58 129,129 0,71 -57,129 -129,129l-224 0 0 157 224 0z"/>
  <path class="fil1" d="M1083 977c-46,0 -83,37 -83,84 0,46 37,83 83,83l76 0 419 0c46,0 83,-37 83,-83 0,-47 -37,-84 -83,-84l-495 0zm129 106c-30,0 -30,-45 0,-45l237 0c30,0 30,45 0,45l-237 0z"/>
  <path class="fil1" d="M1306 1393l-905 0c-47,0 -84,37 -84,83 0,46 37,84 84,84l905 0c46,0 84,-38 84,-84 0,-46 -38,-83 -84,-83zm-128 60c30,0 30,46 0,46l-649 0c-30,0 -30,-46 0,-46l649 0z"/>
 </g>
</svg>
