<?xml version="1.0" encoding="UTF-8" standalone="no"?> <svg xmlns="http://www.w3.org/2000/svg" xmlns:xlink="http://www.w3.org/1999/xlink" viewBox="0 0 64 64"><defs><style>.cls-1{fill:url(#linear-gradient);}</style><linearGradient id="linear-gradient" x1="3.4" y1="32" x2="60.6" y2="32" gradientUnits="userSpaceOnUse"><stop offset="0" stop-color="#5bb4f6"/><stop offset="0.61" stop-color="#2191e5"/><stop offset="1" stop-color="#007edb"/></linearGradient></defs><g id="Layer_96" data-name="Layer 96"><path class="cls-1" d="M32,3.4h0A28.59,28.59,0,0,0,3.4,32h0A28.59,28.59,0,0,0,32,60.6h0A28.59,28.59,0,0,0,60.6,32h0A28.59,28.59,0,0,0,32,3.4ZM17.55,50.75a3.58,3.58,0,1,1,3.57-3.58A3.58,3.58,0,0,1,17.55,50.75Zm0-10.12a3.58,3.58,0,1,1,3.57-3.57A3.58,3.58,0,0,1,17.55,40.63Zm0-10.11a3.58,3.58,0,1,1,3.57-3.58A3.59,3.59,0,0,1,17.55,30.52Zm0-10.12a3.58,3.58,0,1,1,3.57-3.57A3.58,3.58,0,0,1,17.55,20.4ZM49.28,48H26.88a.75.75,0,0,1,0-1.5h22.4a.75.75,0,0,1,0,1.5Zm0-10.12H26.88a.75.75,0,0,1,0-1.5h22.4a.75.75,0,0,1,0,1.5Zm0-10.11H26.88a.75.75,0,0,1,0-1.5h22.4a.75.75,0,0,1,0,1.5Zm0-10.12H26.88a.75.75,0,1,1,0-1.5h22.4a.75.75,0,0,1,0,1.5Z"/></g></svg>