<?xml version="1.0" encoding="UTF-8"?>
<!DOCTYPE svg PUBLIC "-//W3C//DTD SVG 1.1//EN" "http://www.w3.org/Graphics/SVG/1.1/DTD/svg11.dtd">
<!-- Creator: CorelDRAW -->
<svg xmlns="http://www.w3.org/2000/svg" xml:space="preserve" width="2.66666in" height="2.66666in" version="1.1" style="shape-rendering:geometricPrecision; text-rendering:geometricPrecision; image-rendering:optimizeQuality; fill-rule:evenodd; clip-rule:evenodd"
viewBox="0 0 2667 2667"
 xmlns:xlink="http://www.w3.org/1999/xlink">
 <defs>
  <style type="text/css">
   <![CDATA[
    .fil0 {fill:#1D81CE}
    .fil1 {fill:white}
   ]]>
  </style>
 </defs>
 <g id="Layer_x0020_1">
  <metadata id="CorelCorpID_0Corel-Layer"/>
  <circle class="fil0" cx="1333" cy="1333" r="1333"/>
  <path class="fil1" d="M1890 1163c-25,0 -24,-24 -24,-42 0,-30 47,-30 47,0 0,18 2,42 -23,42zm-619 789l-768 0c-13,0 -23,-10 -23,-23l0 -396c0,-77 62,-139 139,-139l136 0 0 -36c-77,-45 -129,-129 -129,-224l1 -339c0,-44 36,-81 81,-81l359 0c45,0 81,37 81,81l0 339c0,95 -51,179 -128,224l0 36 626 0 0 -36c-76,-45 -128,-129 -128,-224l1 -339c0,-44 36,-81 81,-81l359 0c45,0 81,37 81,81l0 339c0,95 -51,179 -128,224l0 36 1 0c8,-16 24,-27 42,-27l109 0c24,0 44,18 46,41 47,24 77,72 77,124l0 397c0,13 -11,23 -24,23l-768 0c-13,0 -23,-10 -23,-23l0 -325 -77 0 0 325c0,13 -11,23 -24,23zm-470 -537c5,43 -11,91 27,124 56,49 145,16 145,-62l0 -97c-54,19 -118,19 -172,0l0 35zm710 25c-51,1 -92,41 -92,93l-1 373 116 0 0 -208c0,-30 47,-30 47,0l0 208 397 0 0 -208c0,-30 47,-30 47,0l0 208 115 0 0 -373c0,-26 -11,-51 -29,-68 -2,117 -173,130 -199,22 -5,67 -62,122 -133,122 -73,0 -133,-59 -133,-132l0 -37 -135 0zm-984 466l117 0 0 -208c0,-30 46,-30 46,0l0 208 558 0 0 -325c0,-13 10,-24 23,-24l101 0c0,-46 2,-79 35,-117l-387 0 -2 60c-8,60 -64,106 -124,109l0 0c-79,2 -139,-58 -139,-132l0 -37 -136 0c-51,0 -93,42 -93,93l0 373 1 0zm1172 -397c41,90 166,57 166,-32l0 -97c-54,19 -118,19 -172,0 0,35 -4,103 6,129zm-913 -186c1,0 2,0 3,1 137,72 312,-26 312,-190l0 -98 -17 0c-36,0 -65,-29 -65,-65l0 -24 -263 0 0 24c0,36 -29,65 -65,65l-18 0 0 98c0,82 46,153 113,189zm-82 -340c17,-18 -13,-83 28,-83l310 0c49,0 0,89 42,89l17 0 0 -194c0,-19 -15,-34 -34,-34l-359 0c-19,0 -35,15 -35,34l0 194c10,0 24,2 31,-6zm183 298c-60,0 -107,-74 -65,-88 34,-11 24,41 65,41 42,0 32,-52 66,-41 42,14 -5,88 -66,88zm1069 133c4,37 -11,63 19,89 26,23 89,11 89,-39l0 -50 -108 0zm-218 -70c124,24 255,-68 255,-210l0 -98 -18 0c-35,0 -64,-29 -64,-65l0 -24 -263 0 0 24c0,36 -29,65 -65,65l-18 0 0 98c0,103 74,191 173,210zm-142 -361c17,-17 -13,-83 28,-83l310 0c49,0 0,89 41,89l18 0 0 -194c0,-19 -15,-34 -34,-34l-359 0c-19,0 -35,15 -35,34l0 194c10,0 23,2 31,-6zm183 298c-60,0 -107,-74 -65,-88 34,-11 24,41 65,41 42,0 32,-52 66,-41 42,14 -5,88 -66,88zm286 133l0 0zm-1242 -314c-23,0 -21,-28 -46,-28 -27,0 -29,40 -57,25 -36,-19 12,-72 57,-72 46,0 93,53 57,72 -4,2 -8,3 -11,3zm-46 63c-25,0 -24,-24 -24,-42 0,-30 47,-30 47,0 0,18 2,42 -23,42zm267 -63c-23,0 -21,-28 -46,-28 -27,0 -29,40 -57,25 -36,-19 12,-72 57,-72 46,0 93,53 57,72 -4,2 -8,3 -11,3zm-46 63c-25,0 -23,-24 -23,-42 0,-30 46,-30 46,0 0,18 2,42 -23,42zm625 -63c-17,0 -29,-19 -21,-34 28,-53 106,-54 133,0 14,27 -27,48 -41,21 -10,-20 -40,-20 -51,0 -4,8 -12,13 -20,13zm46 63c-25,0 -24,-24 -24,-42 0,-30 47,-30 47,0 0,18 2,42 -23,42zm267 -63c-23,0 -21,-28 -46,-28 -27,0 -29,40 -57,25 -36,-19 11,-72 57,-72 62,0 93,75 46,75z"/>
 </g>
</svg>
